<?xml version="1.0" encoding="UTF-8"?>
<svg version="1.1" xmlns="http://www.w3.org/2000/svg" width="220" height="80">
<path d="M0 0 C0.99 0 1.98 0 3 0 C3 2.31 3 4.62 3 7 C1 6 1 6 0 5 C-0.33 5.99 -0.66 6.98 -1 8 C-1.66 8.33 -2.32 8.66 -3 9 C0.14930893 10.04976964 2.38814456 10.10131595 5.6875 10.0625 C6.68136719 10.05347656 7.67523438 10.04445313 8.69921875 10.03515625 C9.45847656 10.02355469 10.21773438 10.01195312 11 10 C11.78416221 13.4453741 12.11108545 16.59445723 12.0625 20.125 C12.05347656 20.97320313 12.04445313 21.82140625 12.03515625 22.6953125 C12.02355469 23.45585937 12.01195312 24.21640625 12 25 C12 25.99 12 26.98 12 28 C15.12197478 26.6910428 15.12197478 26.6910428 17 24 C18.65 24 20.3 24 22 24 C21.360625 25.0725 20.72125 26.145 20.0625 27.25 C17.89991814 30.91600426 17.89991814 30.91600426 17 35 C17.309375 36.0725 17.61875 37.145 17.9375 38.25 C18.83753439 41.42659196 19.0753349 43.14804051 18.9375 46.3125 C18.958125 47.529375 18.97875 48.74625 19 50 C20.485 50.99 20.485 50.99 22 52 C22 52.99 22 53.98 22 55 C22.0825 56.093125 22.165 57.18625 22.25 58.3125 C21.95589934 62.65048472 20.63939989 64.61826889 18 68 C15.69 67.67 13.38 67.34 11 67 C11 65.02 11 63.04 11 61 C7.57421051 64.17539556 7.57421051 64.17539556 5 68 C3.0625 67.625 3.0625 67.625 1 67 C-0.35439668 64.29120665 -0.06501451 61.99066732 0 59 C-0.66 59 -1.32 59 -2 59 C-2.20496094 59.78246094 -2.40992188 60.56492188 -2.62109375 61.37109375 C-2.89050781 62.38300781 -3.15992188 63.39492188 -3.4375 64.4375 C-3.70433594 65.44683594 -3.97117187 66.45617187 -4.24609375 67.49609375 C-5 70 -5 70 -6 71 C-7.99958364 71.04080783 -10.00045254 71.04254356 -12 71 C-12.33 70.01 -12.66 69.02 -13 68 C-14.11375 68.680625 -15.2275 69.36125 -16.375 70.0625 C-18.2734375 71.22265625 -18.2734375 71.22265625 -20 72 C-22 71 -22 71 -24 69 C-24.23460937 69.64453125 -24.46921875 70.2890625 -24.7109375 70.953125 C-26 73 -26 73 -28.1640625 73.609375 C-28.97617188 73.65578125 -29.78828125 73.7021875 -30.625 73.75 C-31.44226563 73.80671875 -32.25953125 73.8634375 -33.1015625 73.921875 C-33.72804687 73.94765625 -34.35453125 73.9734375 -35 74 C-35.33 73.34 -35.66 72.68 -36 72 C-36.9075 72.37125 -37.815 72.7425 -38.75 73.125 C-42 74 -42 74 -44.375 73.125 C-45.179375 72.568125 -45.179375 72.568125 -46 72 C-46 70.68 -46 69.36 -46 68 C-46.39832031 68.84884766 -46.39832031 68.84884766 -46.8046875 69.71484375 C-47.15789062 70.44832031 -47.51109375 71.18179688 -47.875 71.9375 C-48.39707031 73.03384766 -48.39707031 73.03384766 -48.9296875 74.15234375 C-50 76 -50 76 -52 77 C-54.09375 76.984375 -54.09375 76.984375 -56.5 76.75 C-57.2940625 76.68296875 -58.088125 76.6159375 -58.90625 76.546875 C-61 76 -61 76 -63 73 C-63.33 74.32 -63.66 75.64 -64 77 C-68.455 77.495 -68.455 77.495 -73 78 C-75.98423513 69.23380932 -75.02397204 61.08775182 -74 52 C-78.95 50.515 -78.95 50.515 -84 49 C-84 42.07 -84 35.14 -84 28 C-81.36 27.34 -78.72 26.68 -76 26 C-76 25.34 -76 24.68 -76 24 C-70.25 23 -70.25 23 -68 23 C-61.09588451 22.57034474 -54.38868715 21.39630206 -47.62255859 20.01635742 C-44.79448853 19.45345535 -42.15945667 18.99794691 -39.26953125 19.03515625 C-36.6109355 18.99397318 -35.32957786 18.23745062 -33 17 C-30.99069771 16.43631654 -28.96826823 15.91814031 -26.9375 15.4375 C-23.90205036 14.71334452 -20.96132351 13.98710784 -18 13 C-15 12 -15 12 -13 11.8125 C-9.90322769 10.55443625 -9.42792762 7.91535223 -8 5 C-6.0625 3.75 -6.0625 3.75 -4 3 C-3.2575 2.62875 -2.515 2.2575 -1.75 1.875 C-1.1725 1.58625 -0.595 1.2975 0 1 C0 0.67 0 0.34 0 0 Z M-6 10 C-5 12 -5 12 -5 12 Z M-8 12 C-7 14 -7 14 -7 14 Z M7 30 C6.67 30.99 6.34 31.98 6 33 C6.66 33 7.32 33 8 33 C7.67 32.01 7.34 31.02 7 30 Z M-4 31 C-4 32.32 -4 33.64 -4 35 C-4.90492188 35.07347656 -4.90492188 35.07347656 -5.828125 35.1484375 C-6.62734375 35.22320312 -7.4265625 35.29796875 -8.25 35.375 C-9.03890625 35.44460937 -9.8278125 35.51421875 -10.640625 35.5859375 C-13.10880331 36.01909462 -14.81597806 36.79878793 -17 38 C-18.66140763 38.67966676 -20.32700041 39.34938905 -22 40 C-22 40.33 -22 40.66 -22 41 C-23.65 41.33 -25.3 41.66 -27 42 C-27 42.33 -27 42.66 -27 43 C-22.31680285 43.88327942 -22.31680285 43.88327942 -17.625 43.5 C-14.88300148 42.97771457 -13.16589941 43.23795948 -10.4375 43.6875 C-8.13437684 44.05605722 -8.13437684 44.05605722 -6 44 C-3.60204619 42.18712805 -3.60204619 42.18712805 -2 40 C-1.01 40 -0.02 40 1 40 C1.66 40.66 2.32 41.32 3 42 C3 40.68 3 39.36 3 38 C5.64 38 8.28 38 11 38 C11 37.34 11 36.68 11 36 C7.7 36 4.4 36 1 36 C0.67 35.34 0.34 34.68 0 34 C-0.33 34.33 -0.66 34.66 -1 35 C-1.33 33.68 -1.66 32.36 -2 31 C-2.66 31 -3.32 31 -4 31 Z M13 33 C13.33 34.32 13.66 35.64 14 37 C14.33 36.34 14.66 35.68 15 35 C14.34 34.34 13.68 33.68 13 33 Z M-22 38 C-18 39 -18 39 -18 39 Z M-27 39 C-23 40 -23 40 -23 40 Z M12 37 C12 37.66 12 38.32 12 39 C9.69 39 7.38 39 5 39 C5 39.33 5 39.66 5 40 C6.98 40 8.96 40 11 40 C11.33 41.32 11.66 42.64 12 44 C12.33 41.69 12.66 39.38 13 37 C12.67 37 12.34 37 12 37 Z M-39 40 C-39 40.66 -39 41.32 -39 42 C-39.99 42.495 -39.99 42.495 -41 43 C-42.0194119 43.98020375 -43.02246356 44.97803008 -44 46 C-43.01 47.485 -43.01 47.485 -42 49 C-42 48.01 -42 47.02 -42 46 C-40.9275 46.165 -39.855 46.33 -38.75 46.5 C-34.96971248 47.08810915 -34.96971248 47.08810915 -31 47 C-30.34 45.68 -29.68 44.36 -29 43 C-32.62326739 41.7922442 -33.64146369 42.45688872 -37 44 C-37.66 42.68 -38.32 41.36 -39 40 Z M-32 40 C-32 40.33 -32 40.66 -32 41 C-30.35 41 -28.7 41 -27 41 C-27 40.67 -27 40.34 -27 40 C-28.65 40 -30.3 40 -32 40 Z M-36 41 C-32 42 -32 42 -32 42 Z M-51 42 C-51 42.99 -51 43.98 -51 45 C-55.455 45.495 -55.455 45.495 -60 46 C-60.33 45.34 -60.66 44.68 -61 44 C-61 44.99 -61 45.98 -61 47 C-62.32 46.67 -63.64 46.34 -65 46 C-65.33 47.32 -65.66 48.64 -66 50 C-64.68 50 -63.36 50 -62 50 C-62 51.65 -62 53.3 -62 55 C-61.34 53.68 -60.68 52.36 -60 51 C-58.68 51 -57.36 51 -56 51 C-56 50.01 -56 49.02 -56 48 C-57.32 48.33 -58.64 48.66 -60 49 C-60 48.34 -60 47.68 -60 47 C-57.69 47 -55.38 47 -53 47 C-53.66 47.66 -54.32 48.32 -55 49 C-54.34 49.33 -53.68 49.66 -53 50 C-52.01 51.485 -52.01 51.485 -51 53 C-47.86293483 48.90052696 -47.86293483 48.90052696 -47 44 C-47.99 44 -48.98 44 -50 44 C-50.33 43.34 -50.66 42.68 -51 42 Z M-46 43 C-42 44 -42 44 -42 44 Z M-7 44 C-6 46 -6 46 -6 46 Z M-69 48 C-68.67 48.66 -68.34 49.32 -68 50 C-67.67 49.34 -67.34 48.68 -67 48 C-67.66 48 -68.32 48 -69 48 Z M-78 49 C-78 49.33 -78 49.66 -78 50 C-75.36 50 -72.72 50 -70 50 C-70 49.67 -70 49.34 -70 49 C-72.64 49 -75.28 49 -78 49 Z M-67 50 C-66 53 -66 53 -66 53 Z M17 51 C18 53 18 53 18 53 Z M-68 73 C-67 76 -67 76 -67 76 Z M-58 73 C-57 75 -57 75 -57 75 Z " fill="#060303" transform="translate(142,0)"/>
<path d="M0 0 C0.99 0 1.98 0 3 0 C3 0.99 3 1.98 3 3 C6.3863251 4.50930183 6.3863251 4.50930183 10 5 C11.35432675 3.68799596 12.68733482 2.35368596 14 1 C16.87470493 -0.43735246 18.81894588 -0.38172649 22 0 C24.4375 1.9375 24.4375 1.9375 26 5 C26.31213622 9.27855009 25.75509219 12.77297518 23.5 16.4375 C19.89429953 18.69106279 16.16038514 19.3243819 12 20 C11.67 21.32 11.34 22.64 11 24 C8.03 24.66 5.06 25.32 2 26 C2 26.66 2 27.32 2 28 C-0.64 28.66 -3.28 29.32 -6 30 C-6 30.33 -6 30.66 -6 31 C-6.73605469 31.04898438 -7.47210938 31.09796875 -8.23046875 31.1484375 C-9.20628906 31.22320312 -10.18210937 31.29796875 -11.1875 31.375 C-12.15042969 31.44460937 -13.11335938 31.51421875 -14.10546875 31.5859375 C-17.01508938 32.00215853 -19.32890774 32.79874096 -22 34 C-23.75420776 28.73737671 -24.13468947 23.52226815 -24 18 C-24.928125 18.825 -25.85625 19.65 -26.8125 20.5 C-29.625 23 -29.625 23 -33 23 C-33 24.98 -33 26.96 -33 29 C-34.98 29.33 -36.96 29.66 -39 30 C-39 24.06 -39 18.12 -39 12 C-28.52491961 9.09726688 -28.52491961 9.09726688 -25.44921875 8.52734375 C-22.80404053 7.95780777 -20.50755548 7.00988177 -18 6 C-15.96652311 5.44805627 -13.9241737 4.92796639 -11.875 4.4375 C-8.86168025 3.71234949 -5.94111561 2.98037187 -3 2 C-2.01 1.67 -1.02 1.34 0 1 C0 0.67 0 0.34 0 0 Z M-7 27 C-3 28 -3 28 -3 28 Z M-12 28 C-8 29 -8 29 -8 29 Z M-17 29 C-17 29.33 -17 29.66 -17 30 C-15.35 30 -13.7 30 -12 30 C-12 29.67 -12 29.34 -12 29 C-13.65 29 -15.3 29 -17 29 Z M-21 30 C-17 31 -17 31 -17 31 Z " fill="#010509" transform="translate(127,11)"/>
<path d="M0 0 C1.45839897 3.95705456 0.67906093 7.69831388 0.0625 11.75 C-0.08735352 12.79607422 -0.08735352 12.79607422 -0.24023438 13.86328125 C-0.48665873 15.57651726 -0.74240955 17.28840725 -1 19 C0.65 18.67 2.3 18.34 4 18 C4 18.66 4 19.32 4 20 C1.6875 22.1875 1.6875 22.1875 -1 24 C-2.485 23.505 -2.485 23.505 -4 23 C-4 20.69 -4 18.38 -4 16 C-4.45890625 16.433125 -4.9178125 16.86625 -5.390625 17.3125 C-6.00421875 17.869375 -6.6178125 18.42625 -7.25 19 C-7.85328125 19.556875 -8.4565625 20.11375 -9.078125 20.6875 C-11 22 -11 22 -15 22 C-15 20.35 -15 18.7 -15 17 C-15.99 17 -16.98 17 -18 17 C-18.20496094 17.78246094 -18.40992188 18.56492187 -18.62109375 19.37109375 C-18.89050781 20.38300781 -19.15992188 21.39492188 -19.4375 22.4375 C-19.70433594 23.44683594 -19.97117188 24.45617187 -20.24609375 25.49609375 C-21 28 -21 28 -22 29 C-23.99958364 29.04080783 -26.00045254 29.04254356 -28 29 C-28.495 27.515 -28.495 27.515 -29 26 C-30.11375 26.680625 -31.2275 27.36125 -32.375 28.0625 C-34.2734375 29.22265625 -34.2734375 29.22265625 -36 30 C-38 29 -38 29 -40 27 C-40.23460938 27.64453125 -40.46921875 28.2890625 -40.7109375 28.953125 C-42 31 -42 31 -44.1640625 31.609375 C-44.97617188 31.65578125 -45.78828125 31.7021875 -46.625 31.75 C-47.44226563 31.80671875 -48.25953125 31.8634375 -49.1015625 31.921875 C-49.72804688 31.94765625 -50.35453125 31.9734375 -51 32 C-51.33 31.34 -51.66 30.68 -52 30 C-52.9075 30.37125 -53.815 30.7425 -54.75 31.125 C-58 32 -58 32 -60.375 31.125 C-60.91125 30.75375 -61.4475 30.3825 -62 30 C-62 28.68 -62 27.36 -62 26 C-62.39832031 26.84884766 -62.39832031 26.84884766 -62.8046875 27.71484375 C-63.15789062 28.44832031 -63.51109375 29.18179688 -63.875 29.9375 C-64.39707031 31.03384766 -64.39707031 31.03384766 -64.9296875 32.15234375 C-66 34 -66 34 -68 35 C-68 34.34 -68 33.68 -68 33 C-69.32 32.34 -70.64 31.68 -72 31 C-72.11083416 25.56912592 -72.11115605 20.33354906 -71 15 C-70.34 14.67 -69.68 14.34 -69 14 C-68.67 16.64 -68.34 19.28 -68 22 C-67.52820313 20.95199219 -67.52820313 20.95199219 -67.046875 19.8828125 C-66.61890625 18.97273438 -66.1909375 18.06265625 -65.75 17.125 C-65.12351562 15.76761719 -65.12351562 15.76761719 -64.484375 14.3828125 C-62.87558308 11.80027811 -61.80780672 11.04392814 -59 10 C-59 11.32 -59 12.64 -59 14 C-58.4225 13.649375 -57.845 13.29875 -57.25 12.9375 C-54.64198224 11.85082593 -53.60582371 12.06934867 -51 13 C-51.99 13.33 -52.98 13.66 -54 14 C-54 16.97 -54 19.94 -54 23 C-52.35 23 -50.7 23 -49 23 C-49 23.66 -49 24.32 -49 25 C-47.02 24.01 -45.04 23.02 -43 22 C-45.31 21.34 -47.62 20.68 -50 20 C-49.92547376 16.86989791 -49.59006466 14.70616903 -47.55078125 12.265625 C-44.82727254 9.78433724 -42.93822358 8.14926284 -39.25 7.5625 C-37 8 -37 8 -34 9 C-31.99124558 8.72428861 -29.98821313 8.39764263 -28 8 C-28 8.66 -28 9.32 -28 10 C-28.66 10.33 -29.32 10.66 -30 11 C-30.68729254 13.11846285 -30.68729254 13.11846285 -31.125 15.5625 C-31.37636719 16.80193359 -31.37636719 16.80193359 -31.6328125 18.06640625 C-31.81457031 19.02353516 -31.81457031 19.02353516 -32 20 C-30.35 19.67 -28.7 19.34 -27 19 C-27.020625 17.741875 -27.04125 16.48375 -27.0625 15.1875 C-27.10886083 12.35948913 -26.91692961 10.75078884 -26 8 C-25.34 8 -24.68 8 -24 8 C-24 10.97 -24 13.94 -24 17 C-23.66226563 16.31292969 -23.32453125 15.62585937 -22.9765625 14.91796875 C-22.30753906 13.56638672 -22.30753906 13.56638672 -21.625 12.1875 C-21.18414062 11.29417969 -20.74328125 10.40085937 -20.2890625 9.48046875 C-19 7 -19 7 -17 4 C-16.01 4 -15.02 4 -14 4 C-14 4.66 -14 5.32 -14 6 C-11.36 5.67 -8.72 5.34 -6 5 C-6 5.66 -6 6.32 -6 7 C-8 8.625 -8 8.625 -10 10 C-9.34 10 -8.68 10 -8 10 C-8.66 11.32 -9.32 12.64 -10 14 C-10.66 14 -11.32 14 -12 14 C-11.505 15.485 -11.505 15.485 -11 17 C-10.4225 16.505 -9.845 16.01 -9.25 15.5 C-7 14 -7 14 -3 14 C-3.061875 12.989375 -3.12375 11.97875 -3.1875 10.9375 C-2.97357173 6.44500628 -1.95386468 3.98914039 0 0 Z " fill="#130602" transform="translate(158,42)"/>
<path d="M0 0 C0 1.65 0 3.3 0 5 C-1.65 5 -3.3 5 -5 5 C-5 4.34 -5 3.68 -5 3 C-5.99 3 -6.98 3 -8 3 C-7.67 3.99 -7.34 4.98 -7 6 C-4.68970915 6.74259349 -2.354248 7.411438 0 8 C1 9 1 9 1.1875 11.9375 C1 15 1 15 -1 17 C-1.99 17 -2.98 17 -4 17 C-4 18.65 -4 20.3 -4 22 C-4.99 21.67 -5.98 21.34 -7 21 C-6.67 20.34 -6.34 19.68 -6 19 C-10.6119382 18.68842793 -10.6119382 18.68842793 -14.9375 19.96875 C-18.44798757 21.72399378 -22.1210849 21.65774279 -26 22 C-26 16.39 -26 10.78 -26 5 C-19 1 -19 1 -16.125 1.125 C-14 2 -14 2 -13 4 C-12.154375 3.34 -11.30875 2.68 -10.4375 2 C-6.56563053 -0.25272405 -4.39721203 -0.35177696 0 0 Z " fill="#030C16" transform="translate(85,25)"/>
<path d="M0 0 C-0.4793247 4.31392226 -1.7457985 6.16569547 -5 9 C-3.125 4.25 -3.125 4.25 -2 2 C-4.64752004 4.57784846 -6.94432065 6.91648098 -9 10 C-6.69 10.33 -4.38 10.66 -2 11 C-1.505 12.98 -1.505 12.98 -1 15 C-7.47685525 20.87435709 -7.47685525 20.87435709 -12 21 C-12.66 20.34 -13.32 19.68 -14 19 C-14.33 19.99 -14.66 20.98 -15 22 C-17.8125 23.3125 -17.8125 23.3125 -21 24 C-23.375 23.125 -23.375 23.125 -25 22 C-25 20.68 -25 19.36 -25 18 C-25.39832031 18.84884766 -25.39832031 18.84884766 -25.8046875 19.71484375 C-26.15789062 20.44832031 -26.51109375 21.18179688 -26.875 21.9375 C-27.39707031 23.03384766 -27.39707031 23.03384766 -27.9296875 24.15234375 C-29 26 -29 26 -31 27 C-31 26.34 -31 25.68 -31 25 C-32.32 24.34 -33.64 23.68 -35 23 C-35.11083416 17.56912592 -35.11115605 12.33354906 -34 7 C-33.34 6.67 -32.68 6.34 -32 6 C-31.67 8.64 -31.34 11.28 -31 14 C-30.68546875 13.30132812 -30.3709375 12.60265625 -30.046875 11.8828125 C-29.61890625 10.97273438 -29.1909375 10.06265625 -28.75 9.125 C-28.12351562 7.76761719 -28.12351562 7.76761719 -27.484375 6.3828125 C-25.87558308 3.80027811 -24.80780672 3.04392814 -22 2 C-22 3.32 -22 4.64 -22 6 C-21.4225 5.649375 -20.845 5.29875 -20.25 4.9375 C-17.64198224 3.85082593 -16.60582371 4.06934867 -14 5 C-14.99 5.33 -15.98 5.66 -17 6 C-17 8.97 -17 11.94 -17 15 C-15.35 15 -13.7 15 -12 15 C-12 15.66 -12 16.32 -12 17 C-10.02 16.01 -8.04 15.02 -6 14 C-8.31 13.34 -10.62 12.68 -13 12 C-12.92547376 8.86989791 -12.59006466 6.70616903 -10.55078125 4.265625 C-7.17373333 1.18892191 -4.79281696 -0.87142127 0 0 Z " fill="#200C04" transform="translate(121,50)"/>
<path d="M0 0 C0.99 0 1.98 0 3 0 C3 2.31 3 4.62 3 7 C1 6 1 6 0 5 C-0.33 5.99 -0.66 6.98 -1 8 C-1.99 8.495 -1.99 8.495 -3 9 C0.14930893 10.04976964 2.38814456 10.10131595 5.6875 10.0625 C6.68136719 10.05347656 7.67523438 10.04445313 8.69921875 10.03515625 C9.45847656 10.02355469 10.21773437 10.01195312 11 10 C11.78416221 13.4453741 12.11108545 16.59445723 12.0625 20.125 C12.05347656 20.97320313 12.04445312 21.82140625 12.03515625 22.6953125 C12.02355469 23.45585937 12.01195312 24.21640625 12 25 C12 25.99 12 26.98 12 28 C15.12197478 26.6910428 15.12197478 26.6910428 17 24 C18.65 24 20.3 24 22 24 C20.95833333 25.72526042 19.91666667 27.45052083 18.875 29.17578125 C17.78376001 31.11361926 17.78376001 31.11361926 18 34 C17.38125 34.0825 16.7625 34.165 16.125 34.25 C15.42375 34.4975 14.7225 34.745 14 35 C13.731875 35.66 13.46375 36.32 13.1875 37 C12.5996875 37.99 12.5996875 37.99 12 39 C8.5 39.6875 8.5 39.6875 5 40 C4.01 40.495 4.01 40.495 3 41 C3 40.01 3 39.02 3 38 C8.75 36.875 8.75 36.875 11 38 C11 37.34 11 36.68 11 36 C9.1746875 36.2784375 9.1746875 36.2784375 7.3125 36.5625 C3.97022061 36.98993182 1.28031583 36.92258883 -2 36 C-2.33 34.02 -2.66 32.04 -3 30 C-2.38511719 29.89042969 -1.77023438 29.78085937 -1.13671875 29.66796875 C-0.32847656 29.50941406 0.47976562 29.35085937 1.3125 29.1875 C2.11300781 29.03667969 2.91351563 28.88585937 3.73828125 28.73046875 C6.32574081 27.89479528 7.38711775 27.17714136 9 25 C10.15890534 21.01717974 10.53662435 17.29421168 8.9375 13.4375 C6.15780273 11.37514396 4.39308848 11.59282938 1 12 C-1.7774903 12.47730529 -1.7774903 12.47730529 -4 14 C-5.37189827 17.02982306 -5.37189827 17.02982306 -6 20 C-6.37125 19.1028125 -6.37125 19.1028125 -6.75 18.1875 C-8.16370012 15.71352479 -9.65055383 14.56629745 -12 13 C-11.43224464 11.70141061 -10.84508337 10.41129559 -10.25 9.125 C-9.92515625 8.40570313 -9.6003125 7.68640625 -9.265625 6.9453125 C-7.7596677 4.63060035 -6.52669993 4.02647185 -4 3 C-2.88625 2.443125 -2.88625 2.443125 -1.75 1.875 C-0.88375 1.441875 -0.88375 1.441875 0 1 C0 0.67 0 0.34 0 0 Z M-6 10 C-5 12 -5 12 -5 12 Z M-8 12 C-7 14 -7 14 -7 14 Z M7 30 C6.67 30.99 6.34 31.98 6 33 C6.66 33 7.32 33 8 33 C7.67 32.01 7.34 31.02 7 30 Z " fill="#000102" transform="translate(142,0)"/>
<path d="M0 0 C0.99 0.33 1.98 0.66 3 1 C3.06058594 1.67546875 3.12117188 2.3509375 3.18359375 3.046875 C3.30927734 4.38492188 3.30927734 4.38492188 3.4375 5.75 C3.55931641 7.07257812 3.55931641 7.07257812 3.68359375 8.421875 C4.21800933 13.22375253 4.21800933 13.22375253 7 17 C7 17.99 7 18.98 7 20 C7.12375 21.6396875 7.12375 21.6396875 7.25 23.3125 C6.95589934 27.65048472 5.63939989 29.61826889 3 33 C0.69 32.67 -1.62 32.34 -4 32 C-4 30.02 -4 28.04 -4 26 C-7.42578949 29.17539556 -7.42578949 29.17539556 -10 33 C-11.9375 32.625 -11.9375 32.625 -14 32 C-15.35439668 29.29120665 -15.06501451 26.99066732 -15 24 C-14.67 24 -14.34 24 -14 24 C-14 25.65 -14 27.3 -14 29 C-10.02385628 27.67461876 -7.88810116 25.98769086 -5 23 C-4.34 23 -3.68 23 -3 23 C-2.67 25.31 -2.34 27.62 -2 30 C-1.1028125 29.5359375 -1.1028125 29.5359375 -0.1875 29.0625 C2 28 2 28 5 27 C5 26.34 5 25.68 5 25 C3.35 25.33 1.7 25.66 0 26 C-0.11269443 19.8894576 0.10395632 14.04829486 1 8 C-0.23343274 11.37138281 -1.00388319 14.07636943 -1.1875 17.6875 C-1.455625 18.780625 -1.72375 19.87375 -2 21 C-5.4375 22.875 -5.4375 22.875 -9 24 C-9.66 24.33 -10.32 24.66 -11 25 C-11 21 -11 21 -9 18.75 C-8.34 18.1725 -7.68 17.595 -7 17 C-7.99 17.33 -8.98 17.66 -10 18 C-9.67 17.01 -9.34 16.02 -9 15 C-6.9375 14.3125 -6.9375 14.3125 -5 14 C-5 13.34 -5 12.68 -5 12 C-5.66 11.67 -6.32 11.34 -7 11 C-6.01 10.34 -5.02 9.68 -4 9 C-3.03355976 7.08418896 -3.03355976 7.08418896 -2.375 4.9375 C-1.07629428 1.07629428 -1.07629428 1.07629428 0 0 Z M2 16 C3 18 3 18 3 18 Z " fill="#0F0502" transform="translate(157,35)"/>
<path d="M0 0 C2.4375 1.9375 2.4375 1.9375 4 5 C4.32850326 9.50289838 3.84999626 12.90323064 1.0625 16.5 C-2.71437418 19.24681759 -5.32232845 19.41032207 -10 19 C-12.40198359 17.21788314 -12.86453689 15.8158228 -13.34765625 12.90625 C-13.63697314 8.45522088 -13.47123098 6.59523914 -10.625 3 C-6.85691353 0.12907698 -4.76797542 -0.57215705 0 0 Z " fill="#124891" transform="translate(149,11)"/>
<path d="M0 0 C0.99 0 1.98 0 3 0 C3.33 1.32 3.66 2.64 4 4 C4.33 3.34 4.66 2.68 5 2 C5.99 2 6.98 2 8 2 C8.66 4.97 9.32 7.94 10 11 C10.33 7.37 10.66 3.74 11 0 C11.66 0 12.32 0 13 0 C13 6.27 13 12.54 13 19 C11.35 18.67 9.7 18.34 8 18 C7.67 17.34 7.34 16.68 7 16 C6.67 17.32 6.34 18.64 6 20 C4.68 20.33 3.36 20.66 2 21 C2 17.37 2 13.74 2 10 C1.34 13.3 0.68 16.6 0 20 C-0.66 20 -1.32 20 -2 20 C-2.0544452 17.79194476 -2.09299283 15.58349446 -2.125 13.375 C-2.14820312 12.14523438 -2.17140625 10.91546875 -2.1953125 9.6484375 C-2.0030428 6.05683959 -1.30258556 3.33338825 0 0 Z " fill="#2B0D05" transform="translate(72,57)"/>
<path d="M0 0 C0.66 0 1.32 0 2 0 C1.40644629 5.30018387 -0.37372632 9.58136893 -2.5625 14.375 C-2.89185547 15.11105469 -3.22121094 15.84710938 -3.56054688 16.60546875 C-4.36747805 18.40644557 -5.1828826 20.20362181 -6 22 C-7.32 21.67 -8.64 21.34 -10 21 C-10 19.68 -10 18.36 -10 17 C-10.62648437 17.3609375 -11.25296875 17.721875 -11.8984375 18.09375 C-12.71570313 18.5578125 -13.53296875 19.021875 -14.375 19.5 C-15.59316406 20.19609375 -15.59316406 20.19609375 -16.8359375 20.90625 C-19 22 -19 22 -21 22 C-20.69320312 21.43796875 -20.38640625 20.8759375 -20.0703125 20.296875 C-18.97042415 17.93653066 -18.39904149 15.79534438 -17.875 13.25 C-17.70742187 12.45078125 -17.53984375 11.6515625 -17.3671875 10.828125 C-17.24601562 10.22484375 -17.12484375 9.6215625 -17 9 C-17.99 9.33 -18.98 9.66 -20 10 C-18.63016497 6.83884224 -18.0109362 6.0072908 -15 4 C-13.68 4 -12.36 4 -11 4 C-11 4.66 -11 5.32 -11 6 C-11.99 6.495 -11.99 6.495 -13 7 C-13.68729254 9.11846285 -13.68729254 9.11846285 -14.125 11.5625 C-14.29257813 12.38878906 -14.46015625 13.21507812 -14.6328125 14.06640625 C-14.75398438 14.70449219 -14.87515625 15.34257813 -15 16 C-13.35 15.67 -11.7 15.34 -10 15 C-10.020625 13.741875 -10.04125 12.48375 -10.0625 11.1875 C-10.10886083 8.35948913 -9.91692961 6.75078884 -9 4 C-8.34 4 -7.68 4 -7 4 C-7 6.97 -7 9.94 -7 13 C-6.49339844 11.96939453 -6.49339844 11.96939453 -5.9765625 10.91796875 C-5.53054687 10.01691406 -5.08453125 9.11585937 -4.625 8.1875 C-4.18414062 7.29417969 -3.74328125 6.40085937 -3.2890625 5.48046875 C-2 3 -2 3 0 0 Z " fill="#E1531D" transform="translate(141,46)"/>
<path d="M0 0 C2 2 2 2 2.4375 4.875 C2 8 2 8 -0.3125 10.375 C-3 12 -3 12 -6 12 C-6 13.98 -6 15.96 -6 18 C-7.98 18.33 -9.96 18.66 -12 19 C-12 13.06 -12 7.12 -12 1 C-7.63642042 -0.09089489 -4.4732986 -0.21644993 0 0 Z " fill="#124891" transform="translate(100,22)"/>
<path d="M0 0 C2.31 0 4.62 0 7 0 C7.67413211 1.91405367 8.3390332 3.83136026 9 5.75 C9.37125 6.81734375 9.7425 7.8846875 10.125 8.984375 C11 12 11 12 11 16 C9.02 16.33 7.04 16.66 5 17 C4.67 15.68 4.34 14.36 4 13 C2.35 13.33 0.7 13.66 -1 14 C-1.33 15.65 -1.66 17.3 -2 19 C-2.66 19 -3.32 19 -4 19 C-3.00318287 12.54189755 -1.98363508 6.23428168 0 0 Z " fill="#144B95" transform="translate(107,19)"/>
<path d="M0 0 C0 1.65 0 3.3 0 5 C-1.65 5 -3.3 5 -5 5 C-5 4.34 -5 3.68 -5 3 C-5.99 3 -6.98 3 -8 3 C-7.67 3.99 -7.34 4.98 -7 6 C-4.68970915 6.74259349 -2.354248 7.411438 0 8 C1 9 1 9 1.375 11.875 C1 15 1 15 -1 16.875 C-4.91002574 18.34125965 -7.83978592 18.21153631 -12 18 C-12 16.68 -12 15.36 -12 14 C-10.68 14 -9.36 14 -8 14 C-8 14.66 -8 15.32 -8 16 C-7.01 15.67 -6.02 15.34 -5 15 C-5.33 14.01 -5.66 13.02 -6 12 C-9.51190809 10.77030122 -9.51190809 10.77030122 -13 10 C-13.375 7.25 -13.375 7.25 -13 4 C-8.80358831 0.11064282 -5.61184926 -0.44894794 0 0 Z " fill="#144C99" transform="translate(85,25)"/>
<path d="M0 0 C0 1.98 0 3.96 0 6 C-1.65 6 -3.3 6 -5 6 C-5 4.68 -5 3.36 -5 2 C-5.99 2.66 -6.98 3.32 -8 4 C-8.36498034 6.89608399 -8.36498034 6.89608399 -8.1875 10.125 C-8.16042969 11.22070312 -8.13335937 12.31640625 -8.10546875 13.4453125 C-8.07066406 14.28835937 -8.03585938 15.13140625 -8 16 C-5.2160817 14.60804085 -5.02101003 12.84424221 -4 10 C-2.68 10 -1.36 10 0 10 C0 11.98 0 13.96 0 16 C-4.11045657 17.99294864 -7.44852174 18.59000644 -12 18 C-14.59679645 15.2356683 -14.96536728 13.24242905 -15.5 9.5 C-14.86822744 5.07759209 -13.45403702 3.73109904 -10 1 C-6.52674819 -0.1577506 -3.63932552 -0.06866652 0 0 Z " fill="#144B97" transform="translate(134,15)"/>
<path d="M0 0 C1.45839897 3.95705456 0.67906093 7.69831388 0.0625 11.75 C-0.03740234 12.44738281 -0.13730469 13.14476562 -0.24023438 13.86328125 C-0.48665873 15.57651726 -0.74240955 17.28840725 -1 19 C0.65 18.67 2.3 18.34 4 18 C4 18.66 4 19.32 4 20 C1.6875 22.1875 1.6875 22.1875 -1 24 C-1.99 23.67 -2.98 23.34 -4 23 C-4 20.69 -4 18.38 -4 16 C-4.47050781 16.433125 -4.94101563 16.86625 -5.42578125 17.3125 C-6.04839844 17.869375 -6.67101562 18.42625 -7.3125 19 C-7.92738281 19.556875 -8.54226562 20.11375 -9.17578125 20.6875 C-11 22 -11 22 -14 22 C-14 20.02 -14 18.04 -14 16 C-14.66 16 -15.32 16 -16 16 C-15.67 15.01 -15.34 14.02 -15 13 C-14.34 13 -13.68 13 -13 13 C-13.226875 12.236875 -13.45375 11.47375 -13.6875 10.6875 C-14 8 -14 8 -12.875 6.1875 C-10.46186517 4.65918128 -8.80362763 4.77267884 -6 5 C-6 5.66 -6 6.32 -6 7 C-8 8.625 -8 8.625 -10 10 C-9.34 10 -8.68 10 -8 10 C-8.66 11.32 -9.32 12.64 -10 14 C-10.66 14 -11.32 14 -12 14 C-11.67 14.99 -11.34 15.98 -11 17 C-10.4225 16.505 -9.845 16.01 -9.25 15.5 C-7 14 -7 14 -3 14 C-3.061875 12.989375 -3.12375 11.97875 -3.1875 10.9375 C-2.97357173 6.44500628 -1.95386468 3.98914039 0 0 Z " fill="#D24D1A" transform="translate(158,42)"/>
<path d="M0 0 C0 0.66 0 1.32 0 2 C-1.65 2 -3.3 2 -5 2 C-5 3.98 -5 5.96 -5 8 C-3.68 7.67 -2.36 7.34 -1 7 C-1 7.66 -1 8.32 -1 9 C-1.99 9.33 -2.98 9.66 -4 10 C-4.33 11.65 -4.66 13.3 -5 15 C-3.35 15 -1.7 15 0 15 C0 15.66 0 16.32 0 17 C-1.4577353 17.335939 -2.91621106 17.66866624 -4.375 18 C-5.18710938 18.185625 -5.99921875 18.37125 -6.8359375 18.5625 C-9 19 -9 19 -11 19 C-11 13.39 -11 7.78 -11 2 C-4.25 -0.25 -4.25 -0.25 0 0 Z " fill="#134A95" transform="translate(70,28)"/>
<path d="M0 0 C-0.4793247 4.31392226 -1.7457985 6.16569547 -5 9 C-3.125 4.25 -3.125 4.25 -2 2 C-4.64752004 4.57784846 -6.94432065 6.91648098 -9 10 C-6.69 10.33 -4.38 10.66 -2 11 C-1.67 12.32 -1.34 13.64 -1 15 C-7.14285714 20.57142857 -7.14285714 20.57142857 -12 21 C-12 20.01 -12 19.02 -12 18 C-9 15.8125 -9 15.8125 -6 14 C-8.31 13.34 -10.62 12.68 -13 12 C-12.92547376 8.86989791 -12.59006466 6.70616903 -10.55078125 4.265625 C-7.17373333 1.18892191 -4.79281696 -0.87142127 0 0 Z " fill="#DC511C" transform="translate(121,50)"/>
<path d="M0 0 C0.66 0 1.32 0 2 0 C1.39443166 4.74969866 0.04591658 8.92700578 -1.8125 13.3125 C-2.06064453 13.94478516 -2.30878906 14.57707031 -2.56445312 15.22851562 C-4.47231286 19.75786203 -4.47231286 19.75786203 -7.13671875 20.98046875 C-7.75160156 20.98691406 -8.36648437 20.99335937 -9 21 C-10 20 -10 20 -10.1328125 18.1796875 C-10.11646293 13.35656578 -9.98568677 8.7312965 -9 4 C-8.34 3.67 -7.68 3.34 -7 3 C-6.67 5.64 -6.34 8.28 -6 11 C-5.47599609 9.93458984 -5.47599609 9.93458984 -4.94140625 8.84765625 C-4.48636719 7.92855469 -4.03132813 7.00945313 -3.5625 6.0625 C-3.11003906 5.14597656 -2.65757813 4.22945312 -2.19140625 3.28515625 C-1 1 -1 1 0 0 Z " fill="#E8551F" transform="translate(96,53)"/>
<path d="M0 0 C0.33 0.66 0.66 1.32 1 2 C2.051875 1.814375 3.10375 1.62875 4.1875 1.4375 C7.57119882 1.04920669 9.76425888 1.11752515 13 2 C12.67 5.3 12.34 8.6 12 12 C8 13 8 13 5 13 C4.34 13.66 3.68 14.32 3 15 C2.34 14.67 1.68 14.34 1 14 C1.20625 13.05125 1.4125 12.1025 1.625 11.125 C1.74875 10.09375 1.8725 9.0625 2 8 C1.34 7.34 0.68 6.68 0 6 C-0.125 2.875 -0.125 2.875 0 0 Z " fill="#0C0401" transform="translate(161,36)"/>
<path d="M0 0 C2.4375 1.9375 2.4375 1.9375 4 5 C4.22435283 9.0032958 4.16225015 12.67753993 1.44140625 15.7734375 C0.72791016 16.38058594 0.72791016 16.38058594 0 17 C-0.66 16.67 -1.32 16.34 -2 16 C-2.4140625 13.05859375 -2.4140625 13.05859375 -2.625 9.4375 C-2.73714844 7.64119141 -2.73714844 7.64119141 -2.8515625 5.80859375 C-2.90054688 4.88175781 -2.94953125 3.95492188 -3 3 C-3.99 3 -4.98 3 -6 3 C-6.66 4.32 -7.32 5.64 -8 7 C-8.33 6.34 -8.66 5.68 -9 5 C-9.99 5.99 -10.98 6.98 -12 8 C-11.8125 5.6875 -11.8125 5.6875 -11 3 C-7.47168332 0.07653761 -4.52498193 -0.77020969 0 0 Z " fill="#134890" transform="translate(149,11)"/>
<path d="M0 0 C4.34510827 0.65834974 8.05797217 2.06617503 12 4 C16.19095758 10.28643637 17.4474152 14.54308006 17 22 C15.68 22 14.36 22 13 22 C13.0309375 20.4221875 13.0309375 20.4221875 13.0625 18.8125 C13.01103198 15.67295096 12.73482813 13.03116604 12 10 C10.68 9.67 9.36 9.34 8 9 C8 8.34 8 7.68 8 7 C5.69 6.34 3.38 5.68 1 5 C0.67 3.35 0.34 1.7 0 0 Z " fill="#000000" transform="translate(147,1)"/>
<path d="M0 0 C0 0.66 0 1.32 0 2 C-0.99 2.495 -0.99 2.495 -2 3 C-2.68729254 5.11846285 -2.68729254 5.11846285 -3.125 7.5625 C-3.29257813 8.38878906 -3.46015625 9.21507812 -3.6328125 10.06640625 C-3.75398438 10.70449219 -3.87515625 11.34257813 -4 12 C-2.35 11.67 -0.7 11.34 1 11 C1 8.36 1 5.72 1 3 C1.33 3 1.66 3 2 3 C2 7.62 2 12.24 2 17 C1.67 15.68 1.34 14.36 1 13 C0.37351563 13.3609375 -0.25296875 13.721875 -0.8984375 14.09375 C-1.71570313 14.5578125 -2.53296875 15.021875 -3.375 15.5 C-4.59316406 16.19609375 -4.59316406 16.19609375 -5.8359375 16.90625 C-8 18 -8 18 -10 18 C-9.69320312 17.43796875 -9.38640625 16.8759375 -9.0703125 16.296875 C-7.97042415 13.93653066 -7.39904149 11.79534438 -6.875 9.25 C-6.70742187 8.45078125 -6.53984375 7.6515625 -6.3671875 6.828125 C-6.24601562 6.22484375 -6.12484375 5.6215625 -6 5 C-6.99 5.33 -7.98 5.66 -9 6 C-6.97377245 1.32409027 -5.29661848 0 0 0 Z " fill="#C1481B" transform="translate(130,50)"/>
<path d="M0 0 C0.66 0 1.32 0 2 0 C2.02693575 2.12493141 2.04636628 4.24995912 2.0625 6.375 C2.07410156 7.55835937 2.08570312 8.74171875 2.09765625 9.9609375 C2 13 2 13 1 15 C0.01 15 -0.98 15 -2 15 C-2.33 14.34 -2.66 13.68 -3 13 C-3.99 14.485 -3.99 14.485 -5 16 C-5.66 16 -6.32 16 -7 16 C-7.02694851 14.04174127 -7.04637218 12.08337774 -7.0625 10.125 C-7.07410156 9.03445312 -7.08570312 7.94390625 -7.09765625 6.8203125 C-7 4 -7 4 -6 2 C-5.01 2 -4.02 2 -3 2 C-2.34 4.97 -1.68 7.94 -1 11 C-0.67 7.37 -0.34 3.74 0 0 Z " fill="#B6461B" transform="translate(83,57)"/>
<path d="M0 0 C-0.99 0.33 -1.98 0.66 -3 1 C-3 3.97 -3 6.94 -3 10 C-1.68 10.33 -0.36 10.66 1 11 C-0.28813342 11.83878455 -1.58063256 12.67086783 -2.875 13.5 C-3.59429687 13.9640625 -4.31359375 14.428125 -5.0546875 14.90625 C-7 16 -7 16 -9 16 C-8.69320312 15.43796875 -8.38640625 14.8759375 -8.0703125 14.296875 C-6.97042415 11.93653066 -6.39904149 9.79534438 -5.875 7.25 C-5.70742187 6.45078125 -5.53984375 5.6515625 -5.3671875 4.828125 C-5.24601562 4.22484375 -5.12484375 3.6215625 -5 3 C-5.99 3.33 -6.98 3.66 -8 4 C-5.97675095 -0.48005146 -4.79569304 -1.43870791 0 0 Z " fill="#EA561C" transform="translate(107,55)"/>
<path d="M0 0 C0.99 0.33 1.98 0.66 3 1 C3.33 3.31 3.66 5.62 4 8 C3.01 8.495 3.01 8.495 2 9 C2.33 9.66 2.66 10.32 3 11 C2.01 11 1.02 11 0 11 C-0.33 12.65 -0.66 14.3 -1 16 C-1.66 16 -2.32 16 -3 16 C-2.68954268 14.0830014 -2.37655329 12.16641277 -2.0625 10.25 C-1.88847656 9.18265625 -1.71445313 8.1153125 -1.53515625 7.015625 C-1.11295829 4.63652407 -0.62797116 2.33084789 0 0 Z " fill="#0E2D5B" transform="translate(106,22)"/>
<path d="M0 0 C0.66 0 1.32 0 2 0 C1.85780436 2.20857055 1.71108153 4.41684987 1.5625 6.625 C1.48128906 7.85476562 1.40007812 9.08453125 1.31640625 10.3515625 C1.03336056 13.61532388 0.58961047 16.77943859 0 20 C-0.66 20 -1.32 20 -2 20 C-2.0544452 17.79194476 -2.09299283 15.58349446 -2.125 13.375 C-2.14820312 12.14523438 -2.17140625 10.91546875 -2.1953125 9.6484375 C-2.0030428 6.05683959 -1.30258556 3.33338825 0 0 Z " fill="#DA511E" transform="translate(72,57)"/>
<path d="M0 0 C1.32 0 2.64 0 4 0 C3.67 2.64 3.34 5.28 3 8 C0.50935112 8.68707555 -1.37886292 9 -4 9 C-4.66 9.66 -5.32 10.32 -6 11 C-6.66 10.67 -7.32 10.34 -8 10 C-7.67 8.35 -7.34 6.7 -7 5 C-6.21625 4.855625 -5.4325 4.71125 -4.625 4.5625 C-2.03578982 4.12201075 -2.03578982 4.12201075 0 3 C0 2.01 0 1.02 0 0 Z " fill="#020100" transform="translate(170,40)"/>
<path d="M0 0 C0.99 0.66 1.98 1.32 3 2 C3 5.33333333 3 8.66666667 3 12 C2.67 11.01 2.34 10.02 2 9 C0.02 9.66 -1.96 10.32 -4 11 C-4.125 5.25 -4.125 5.25 -3 3 C-2.34 3 -1.68 3 -1 3 C-0.67 2.01 -0.34 1.02 0 0 Z " fill="#030100" transform="translate(161,50)"/>
<path d="M0 0 C0.99 0 1.98 0 3 0 C3 3.96 3 7.92 3 12 C2.01 12.33 1.02 12.66 0 13 C-1.18306728 10.63386544 -1.13354608 9.13219264 -1.125 6.5 C-1.12757813 5.7059375 -1.13015625 4.911875 -1.1328125 4.09375 C-1 2 -1 2 0 0 Z " fill="#02060D" transform="translate(143,14)"/>
<path d="M0 0 C0.66 0.66 1.32 1.32 2 2 C0.35 4.64 -1.3 7.28 -3 10 C-5.97 9.505 -5.97 9.505 -9 9 C-7.82744291 5.66272214 -6.81131596 3.22562513 -4 1 C-3.34 1 -2.68 1 -2 1 C-2.66 2.98 -3.32 4.96 -4 7 C-2.68 4.69 -1.36 2.38 0 0 Z " fill="#311307" transform="translate(121,51)"/>
<path d="M0 0 C0.99 0 1.98 0 3 0 C3 2.31 3 4.62 3 7 C2.34 7 1.68 7 1 7 C1 9.31 1 11.62 1 14 C0.34 14 -0.32 14 -1 14 C-1.02694851 12.04174127 -1.04637218 10.08337774 -1.0625 8.125 C-1.07410156 7.03445312 -1.08570312 5.94390625 -1.09765625 4.8203125 C-1 2 -1 2 0 0 Z " fill="#F65B1F" transform="translate(77,59)"/>
<path d="M0 0 C0 1.65 0 3.3 0 5 C-1.65 5 -3.3 5 -5 5 C-5 4.34 -5 3.68 -5 3 C-5.99 3 -6.98 3 -8 3 C-8.33 3.99 -8.66 4.98 -9 6 C-9 5.01 -9 4.02 -9 3 C-9.66 2.67 -10.32 2.34 -11 2 C-7.36576791 -0.32590854 -4.22911669 -0.16265833 0 0 Z " fill="#13458C" transform="translate(85,25)"/>
<path d="M0 0 C0 0.66 0 1.32 0 2 C-0.99 2.495 -0.99 2.495 -2 3 C-2.90725434 5.11327425 -2.90725434 5.11327425 -3.625 7.5625 C-4.01558594 8.80193359 -4.01558594 8.80193359 -4.4140625 10.06640625 C-4.60742188 10.70449219 -4.80078125 11.34257813 -5 12 C-5.33 12 -5.66 12 -6 12 C-6 9.69 -6 7.38 -6 5 C-6.99 5.33 -7.98 5.66 -9 6 C-6.97377245 1.32409027 -5.29661848 0 0 0 Z " fill="#D9501B" transform="translate(130,50)"/>
<path d="M0 0 C0.99 0.33 1.98 0.66 3 1 C2.67 5.62 2.34 10.24 2 15 C2.99 15.33 3.98 15.66 5 16 C3.35 16.33 1.7 16.66 0 17 C0 11.39 0 5.78 0 0 Z " fill="#10448C" transform="translate(59,30)"/>
<path d="M0 0 C0.33 0 0.66 0 1 0 C1.33 3.63 1.66 7.26 2 11 C1.34 11 0.68 11 0 11 C0 12.98 0 14.96 0 17 C-0.66 17 -1.32 17 -2 17 C-2.11116338 11.55299453 -2.00581962 6.36437132 -1 1 C-0.67 0.67 -0.34 0.34 0 0 Z " fill="#D3501E" transform="translate(88,56)"/>
<path d="M0 0 C1.32 0 2.64 0 4 0 C4 1.98 4 3.96 4 6 C2.02 6.66 0.04 7.32 -2 8 C-2 4.79604584 -1.25664978 2.90600261 0 0 Z " fill="#12468E" transform="translate(130,25)"/>
<path d="M0 0 C0.78961051 2.36883154 1.03926382 3.80891606 0.53125 6.28125 C-0.03821972 9.19559504 -0.0982337 11.84660264 -0.0625 14.8125 C-0.05347656 15.78832031 -0.04445312 16.76414062 -0.03515625 17.76953125 C-0.02355469 18.50558594 -0.01195312 19.24164063 0 20 C-0.66 20 -1.32 20 -2 20 C-3.70159453 6.3667426 -3.70159453 6.3667426 0 0 Z " fill="#C44B1C" transform="translate(158,42)"/>
<path d="M0 0 C2.475 0.495 2.475 0.495 5 1 C5 2.98 5 4.96 5 7 C3.35 7.33 1.7 7.66 0 8 C0 5.36 0 2.72 0 0 Z " fill="#144D9A" transform="translate(97,23)"/>
<path d="M0 0 C0 0.66 0 1.32 0 2 C-0.66 2 -1.32 2 -2 2 C-2 2.99 -2 3.98 -2 5 C-7.2734375 8.22265625 -7.2734375 8.22265625 -9 9 C-9.66 8.67 -10.32 8.34 -11 8 C-11 7.34 -11 6.68 -11 6 C-10.34 5.67 -9.68 5.34 -9 5 C-7.66150329 4.00692179 -6.32848691 3.00642948 -5 2 C-2 0 -2 0 0 0 Z " fill="#2E1301" transform="translate(131,63)"/>
<path d="M0 0 C0.33 0 0.66 0 1 0 C1 2.31 1 4.62 1 7 C1.99 6.34 2.98 5.68 4 5 C4.99 5 5.98 5 7 5 C7 5.66 7 6.32 7 7 C2.52941176 11 2.52941176 11 0 11 C0 7.37 0 3.74 0 0 Z " fill="#ED581D" transform="translate(155,55)"/>
<path d="M0 0 C-0.55105909 3.9492568 -1.38935371 7.34920174 -3 11 C-3.33 11 -3.66 11 -4 11 C-5.34516765 4.64102564 -5.34516765 4.64102564 -3.6875 1.5625 C-2 0 -2 0 0 0 Z " fill="#DB511B" transform="translate(98,53)"/>
<path d="M0 0 C0.66 0.33 1.32 0.66 2 1 C2 1.66 2 2.32 2 3 C2.99 2.67 3.98 2.34 5 2 C5 2.66 5 3.32 5 4 C3.88625 4.474375 2.7725 4.94875 1.625 5.4375 C-0.26710994 6.25306463 -2.15712709 7.07856355 -4 8 C-4 4 -4 4 -2 1.75 C-1.01 0.88375 -1.01 0.88375 0 0 Z " fill="#1B0B04" transform="translate(150,52)"/>
<path d="M0 0 C0.33 0 0.66 0 1 0 C1 4.62 1 9.24 1 14 C0.67 12.68 0.34 11.36 0 10 C-1.65 10.33 -3.3 10.66 -5 11 C-5 10.34 -5 9.68 -5 9 C-3.35 8.67 -1.7 8.34 0 8 C0 5.36 0 2.72 0 0 Z " fill="#D04E1C" transform="translate(131,53)"/>
<path d="M0 0 C1.65 0.33 3.3 0.66 5 1 C3.68 1.33 2.36 1.66 1 2 C0.67 3.98 0.34 5.96 0 8 C-1.32 8.33 -2.64 8.66 -4 9 C-3.67 7.35 -3.34 5.7 -3 4 C-2.01 4 -1.02 4 0 4 C0 2.68 0 1.36 0 0 Z " fill="#7E350D" transform="translate(169,37)"/>
<path d="M0 0 C0.66 0 1.32 0 2 0 C1.67 3.3 1.34 6.6 1 10 C0.34 9.67 -0.32 9.34 -1 9 C-1.09765625 2.84765625 -1.09765625 2.84765625 -1 1 C-0.67 0.67 -0.34 0.34 0 0 Z " fill="#E55720" transform="translate(72,57)"/>
<path d="M0 0 C0.99 0.33 1.98 0.66 3 1 C3 2.98 3 4.96 3 7 C2.01 7.33 1.02 7.66 0 8 C0 5.36 0 2.72 0 0 Z " fill="#030811" transform="translate(94,24)"/>
<path d="M0 0 C1.65 0.33 3.3 0.66 5 1 C5 2.32 5 3.64 5 5 C4.01 5 3.02 5 2 5 C2 4.34 2 3.68 2 3 C1.01 2.67 0.02 2.34 -1 2 C-0.67 1.34 -0.34 0.68 0 0 Z " fill="#0A1527" transform="translate(75,36)"/>
<path d="M0 0 C0.66 0 1.32 0 2 0 C2 2.64 2 5.28 2 8 C1.01 8.33 0.02 8.66 -1 9 C-0.67 6.03 -0.34 3.06 0 0 Z " fill="#124286" transform="translate(104,29)"/>
<path d="M0 0 C0.33 0 0.66 0 1 0 C1 3.63 1 7.26 1 11 C1.66 11.33 2.32 11.66 3 12 C2.01 12.33 1.02 12.66 0 13 C-0.99 12.34 -1.98 11.68 -3 11 C-2.34 10.67 -1.68 10.34 -1 10 C-0.53248212 7.64400765 -0.53248212 7.64400765 -0.375 4.9375 C-0.30023438 4.01839844 -0.22546875 3.09929688 -0.1484375 2.15234375 C-0.09945312 1.44207031 -0.05046875 0.73179688 0 0 Z " fill="#0F376F" transform="translate(146,16)"/>
<path d="M0 0 C1.65 0.33 3.3 0.66 5 1 C3.75 2.5625 3.75 2.5625 2 4 C-0.1875 3.6875 -0.1875 3.6875 -2 3 C-1.34 2.01 -0.68 1.02 0 0 Z " fill="#E4541D" transform="translate(110,67)"/>
<path d="M0 0 C0.66 0 1.32 0 2 0 C2 1.32 2 2.64 2 4 C2.66 4 3.32 4 4 4 C3.39816251 6.02045442 2.72693904 8.02111039 2 10 C1.01 10.495 1.01 10.495 0 11 C0 7.37 0 3.74 0 0 Z " fill="#240F06" transform="translate(133,49)"/>
<path d="M0 0 C0.33 0 0.66 0 1 0 C1 6.27 1 12.54 1 19 C0.67 19 0.34 19 0 19 C0 12.73 0 6.46 0 0 Z " fill="#000000" transform="translate(56,28)"/>
<path d="M0 0 C0.99 0 1.98 0 3 0 C2.75 3.375 2.75 3.375 2 7 C-0.0625 8.4375 -0.0625 8.4375 -2 9 C-1.34 7.02 -0.68 5.04 0 3 C0.66 3 1.32 3 2 3 C2 2.34 2 1.68 2 1 C1.34 0.67 0.68 0.34 0 0 Z " fill="#230C03" transform="translate(160,59)"/>
<path d="M0 0 C-0.33 1.65 -0.66 3.3 -1 5 C-1.66 4.34 -2.32 3.68 -3 3 C-3.99 3.99 -4.98 4.98 -6 6 C-5.625 3.5625 -5.625 3.5625 -5 1 C-3 0 -3 0 0 0 Z " fill="#144E9D" transform="translate(143,13)"/>
<path d="M0 0 C1.98 0 3.96 0 6 0 C3.37801226 2.15377564 1.35595828 3.40072174 -2 4 C-1.34 2.68 -0.68 1.36 0 0 Z " fill="#DD511D" transform="translate(100,67)"/>
<path d="M0 0 C0.99 0 1.98 0 3 0 C3 1.32 3 2.64 3 4 C1.02 4.99 1.02 4.99 -1 6 C-0.67 4.02 -0.34 2.04 0 0 Z " fill="#CC4F1D" transform="translate(77,59)"/>
<path d="M0 0 C0.33 0 0.66 0 1 0 C1 3.63 1 7.26 1 11 C0.67 11 0.34 11 0 11 C0 7.37 0 3.74 0 0 Z " fill="#000000" transform="translate(155,14)"/>
<path d="M0 0 C0.33 0 0.66 0 1 0 C1 2.97 1 5.94 1 9 C0.67 9 0.34 9 0 9 C0 6.03 0 3.06 0 0 Z " fill="#000000" transform="translate(65,62)"/>
<path d="M0 0 C2.64 0 5.28 0 8 0 C8 0.33 8 0.66 8 1 C5.36 1 2.72 1 0 1 C0 0.67 0 0.34 0 0 Z " fill="#000000" transform="translate(142,8)"/>
<path d="M0 0 C0.33 0 0.66 0 1 0 C1 1.98 1 3.96 1 6 C0.67 6 0.34 6 0 6 C0 4.02 0 2.04 0 0 Z " fill="#000000" transform="translate(66,71)"/>
<path d="M0 0 C0.33 1.32 0.66 2.64 1 4 C0.01 4.495 0.01 4.495 -1 5 C-0.67 3.35 -0.34 1.7 0 0 Z " fill="#000000" transform="translate(140,61)"/>
<path d="M0 0 C0.33 0 0.66 0 1 0 C1 1.98 1 3.96 1 6 C0.67 6 0.34 6 0 6 C0 4.02 0 2.04 0 0 Z " fill="#000000" transform="translate(66,56)"/>
<path d="M0 0 C0.33 1.32 0.66 2.64 1 4 C0.34 3.01 -0.32 2.02 -1 1 C-0.67 0.67 -0.34 0.34 0 0 Z " fill="#000000" transform="translate(151,62)"/>
<path d="M0 0 C1.65 0 3.3 0 5 0 C5 0.33 5 0.66 5 1 C3.35 1 1.7 1 0 1 C0 0.67 0 0.34 0 0 Z " fill="#000000" transform="translate(140,37)"/>
<path d="M0 0 C1.65 0 3.3 0 5 0 C5 0.33 5 0.66 5 1 C3.35 1 1.7 1 0 1 C0 0.67 0 0.34 0 0 Z " fill="#000000" transform="translate(129,37)"/>
<path d="M0 0 C1.65 0 3.3 0 5 0 C5 0.33 5 0.66 5 1 C3.35 1 1.7 1 0 1 C0 0.67 0 0.34 0 0 Z " fill="#000000" transform="translate(61,25)"/>
<path d="M0 0 C1.65 0 3.3 0 5 0 C5 0.33 5 0.66 5 1 C3.35 1 1.7 1 0 1 C0 0.67 0 0.34 0 0 Z " fill="#000000" transform="translate(79,21)"/>
<path d="M0 0 C1.65 0 3.3 0 5 0 C5 0.33 5 0.66 5 1 C3.35 1 1.7 1 0 1 C0 0.67 0 0.34 0 0 Z " fill="#000000" transform="translate(90,19)"/>
<path d="M0 0 C1.65 0 3.3 0 5 0 C5 0.33 5 0.66 5 1 C3.35 1 1.7 1 0 1 C0 0.67 0 0.34 0 0 Z " fill="#000000" transform="translate(109,15)"/>
<path d="M0 0 C4 1 4 1 4 1 Z " fill="#000000" transform="translate(69,79)"/>
<path d="M0 0 C0.66 0.66 1.32 1.32 2 2 C1.01 1.67 0.02 1.34 -1 1 C-0.67 0.67 -0.34 0.34 0 0 Z " fill="#000000" transform="translate(118,69)"/>
<path d="M0 0 C1 4 1 4 1 4 Z " fill="#000000" transform="translate(67,52)"/>
<path d="M0 0 C4 1 4 1 4 1 Z " fill="#000000" transform="translate(131,41)"/>
<path d="M0 0 C0 3 0 3 0 3 Z " fill="#000000" transform="translate(137,40)"/>
<path d="M0 0 C4 1 4 1 4 1 Z " fill="#000000" transform="translate(95,18)"/>
<path d="M0 0 C3 1 3 1 3 1 Z " fill="#000000" transform="translate(87,77)"/>
<path d="M0 0 C3 1 3 1 3 1 Z " fill="#000000" transform="translate(109,74)"/>
<path d="M0 0 C3 1 3 1 3 1 Z " fill="#000000" transform="translate(97,74)"/>
<path d="M0 0 C0.66 0.66 1.32 1.32 2 2 C1.34 2 0.68 2 0 2 C0 1.34 0 0.68 0 0 Z " fill="#000000" transform="translate(94,71)"/>
<path d="" fill="#000000" transform="translate(0,0)"/>
<path d="M0 0 C3 1 3 1 3 1 Z " fill="#000000" transform="translate(58,50)"/>
<path d="M0 0 C3 1 3 1 3 1 Z " fill="#000000" transform="translate(102,45)"/>
<path d="M0 0 C3 1 3 1 3 1 Z " fill="#000000" transform="translate(127,41)"/>
<path d="M0 0 C3 1 3 1 3 1 Z " fill="#000000" transform="translate(134,36)"/>
<path d="M0 0 C3 1 3 1 3 1 Z " fill="#000000" transform="translate(58,26)"/>
<path d="M0 0 C3 1 3 1 3 1 Z " fill="#000000" transform="translate(76,22)"/>
<path d="M0 0 C3 1 3 1 3 1 Z " fill="#000000" transform="translate(87,20)"/>
<path d="" fill="#000000" transform="translate(0,0)"/>
<path d="M0 0 C3 1 3 1 3 1 Z " fill="#000000" transform="translate(106,16)"/>
<path d="" fill="#000000" transform="translate(0,0)"/>
<path d="M0 0 C3 1 3 1 3 1 Z " fill="#000000" transform="translate(124,12)"/>
<path d="" fill="#000000" transform="translate(0,0)"/>
<path d="M0 0 C2 1 2 1 2 1 Z " fill="#000000" transform="translate(112,73)"/>
<path d="M0 0 C2 1 2 1 2 1 Z " fill="#000000" transform="translate(155,69)"/>
<path d="M0 0 C2 1 2 1 2 1 Z " fill="#000000" transform="translate(153,68)"/>
<path d="" fill="#000000" transform="translate(0,0)"/>
<path d="" fill="#000000" transform="translate(0,0)"/>
<path d="M0 0 C2 1 2 1 2 1 Z " fill="#000000" transform="translate(169,50)"/>
<path d="M0 0 C2 1 2 1 2 1 Z " fill="#000000" transform="translate(166,48)"/>
<path d="" fill="#000000" transform="translate(0,0)"/>
<path d="" fill="#000000" transform="translate(0,0)"/>
<path d="M0 0 C2 1 2 1 2 1 Z " fill="#000000" transform="translate(166,35)"/>
<path d="" fill="#000000" transform="translate(0,0)"/>
<path d="" fill="#000000" transform="translate(0,0)"/>
<path d="" fill="#000000" transform="translate(0,0)"/>
<path d="" fill="#000000" transform="translate(0,0)"/>
<path d="" fill="#000000" transform="translate(0,0)"/>
<path d="M0 0 C2 1 2 1 2 1 Z " fill="#000000" transform="translate(150,9)"/>
<path d="M0 0 C2 1 2 1 2 1 Z " fill="#000000" transform="translate(140,9)"/>
<path d="M0 0 C2 1 2 1 2 1 Z " fill="#000000" transform="translate(150,7)"/>
<path d="M0 0 C2 1 2 1 2 1 Z " fill="#000000" transform="translate(156,3)"/>
<path d="M0 0 C2 1 2 1 2 1 Z " fill="#000000" transform="translate(153,1)"/>
<path d="M0 0 C2 1 2 1 2 1 Z " fill="#000000" transform="translate(150,0)"/>
<path d="" fill="#000000" transform="translate(0,0)"/>
<path d="" fill="#000000" transform="translate(0,0)"/>
<path d="" fill="#000000" transform="translate(0,0)"/>
<path d="" fill="#000000" transform="translate(0,0)"/>
<path d="" fill="#000000" transform="translate(0,0)"/>
<path d="" fill="#000000" transform="translate(0,0)"/>
<path d="" fill="#000000" transform="translate(0,0)"/>
<path d="" fill="#000000" transform="translate(0,0)"/>
<path d="" fill="#000000" transform="translate(0,0)"/>
<path d="" fill="#000000" transform="translate(0,0)"/>
<path d="" fill="#000000" transform="translate(0,0)"/>
<path d="" fill="#000000" transform="translate(0,0)"/>
<path d="" fill="#000000" transform="translate(0,0)"/>
<path d="" fill="#000000" transform="translate(0,0)"/>
<path d="" fill="#000000" transform="translate(0,0)"/>
<path d="" fill="#000000" transform="translate(0,0)"/>
<path d="" fill="#000000" transform="translate(0,0)"/>
<path d="" fill="#000000" transform="translate(0,0)"/>
<path d="" fill="#000000" transform="translate(0,0)"/>
<path d="" fill="#000000" transform="translate(0,0)"/>
<path d="" fill="#000000" transform="translate(0,0)"/>
<path d="" fill="#000000" transform="translate(0,0)"/>
<path d="" fill="#000000" transform="translate(0,0)"/>
<path d="" fill="#3F0000" transform="translate(0,0)"/>
<path d="" fill="#000000" transform="translate(0,0)"/>
<path d="" fill="#000000" transform="translate(0,0)"/>
<path d="" fill="#000000" transform="translate(0,0)"/>
<path d="" fill="#000000" transform="translate(0,0)"/>
<path d="" fill="#000000" transform="translate(0,0)"/>
<path d="" fill="#000000" transform="translate(0,0)"/>
<path d="" fill="#000000" transform="translate(0,0)"/>
<path d="" fill="#000000" transform="translate(0,0)"/>
<path d="" fill="#000000" transform="translate(0,0)"/>
<path d="" fill="#000000" transform="translate(0,0)"/>
<path d="" fill="#000000" transform="translate(0,0)"/>
<path d="" fill="#000000" transform="translate(0,0)"/>
<path d="" fill="#000000" transform="translate(0,0)"/>
<path d="" fill="#000000" transform="translate(0,0)"/>
<path d="" fill="#000000" transform="translate(0,0)"/>
<path d="" fill="#000000" transform="translate(0,0)"/>
<path d="" fill="#000000" transform="translate(0,0)"/>
<path d="" fill="#000000" transform="translate(0,0)"/>
<path d="" fill="#000000" transform="translate(0,0)"/>
<path d="" fill="#000000" transform="translate(0,0)"/>
</svg>
